# xmcd CD database file
#
# Track frame offsets:
#	150
#	17625
#	38664
#	54341
#	77837
#	95849
#	112791
#	126842
#	141734
#	153980
#	175537
#
# Disc length: 2649 seconds
#
# Revision: 0
# Processed by: cddbd v1.5.1PL0 Copyright (c) Steve Scherf et al.
# Submitted via: CDex 1.51
#
DISCID=870a570b
DTITLE=Beto Caletti - Esquinas
DYEAR=2004
DGENRE=Jazz
TTITLE0=Chegaste
TTITLE1=Tua chama
TTITLE2=Faceira
TTITLE3=Quando Voce voltar
TTITLE4=Vocé Nao entende nada
TTITLE5=No mar da cançao
TTITLE6=Choro do Tom
TTITLE7=No cais
TTITLE8=Circular
TTITLE9=Avarandado-Triste
TTITLE10=Paraty
EXTD=YEAR: 2004
EXTT0=
EXTT1=
EXTT2=
EXTT3=
EXTT4=
EXTT5=
EXTT6=
EXTT7=
EXTT8=
EXTT9=
EXTT10=
PLAYORDER=
